<svg width="270" height="52" viewBox="0 0 270 52" fill="none" xmlns="http://www.w3.org/2000/svg">
<path d="M34.7417 26.1097C35.6371 23.7771 37.2188 21.771 39.2781 20.3562C41.3373 18.9414 43.7773 18.1844 46.2758 18.1852H49.5131C49.7949 18.1823 50.0668 18.2885 50.2721 18.4815C50.4774 18.6746 50.6 18.9396 50.6144 19.221C50.6287 19.5024 50.5336 19.7785 50.3491 19.9914C50.1645 20.2044 49.9047 20.3377 49.6241 20.3634L47.136 20.6155L43.5241 31.6963C42.306 35.4349 39.936 38.6921 36.7535 41.0013C36.6286 41.0892 36.5222 41.177 36.3835 41.2603C33.6266 43.1604 30.4088 44.2829 27.0682 44.51C23.7277 44.737 20.3876 44.0602 17.399 42.5506C16.6454 42.1715 15.9191 41.7403 15.2254 41.2603C11.8591 38.9434 9.3496 35.5822 8.08478 31.6963L4.47286 20.6155L1.9917 20.3634C1.71108 20.3377 1.4513 20.2044 1.26672 19.9914C1.08214 19.7785 0.987075 19.5024 1.00142 19.221C1.01576 18.9396 1.13839 18.6746 1.34366 18.4815C1.54892 18.2885 1.82091 18.1823 2.10269 18.1852H5.34C7.8378 18.1873 10.2765 18.9454 12.3352 20.3598C14.3939 21.7743 15.9763 23.7788 16.8741 26.1097M12.1661 20.2548L12.4991 18.0788L12.3141 17.0105C11.9761 15.0509 12.0693 13.0412 12.587 11.1213C13.1048 9.20136 14.0348 7.41734 15.3123 5.89342C16.5897 4.36949 18.184 3.14229 19.984 2.29722C21.784 1.45215 23.7466 1.00952 25.7351 1.00015C27.7236 0.990783 29.6902 1.41489 31.4981 2.24296C33.306 3.07103 34.9118 4.28317 36.2035 5.79498C37.4953 7.3068 38.442 9.08198 38.9779 10.9969C39.5137 12.9119 39.6258 14.9206 39.3063 16.8833L38.9456 19.0893L39.1653 20.4213M62.0557 38V35.768L65.3677 34.904L64.8637 35.552V15.068L65.5117 16.004L62.0557 15.14V12.908L69.2197 12.728H79.9837L80.0197 18.992H77.3557L76.7077 15.428L77.5357 15.932H68.5717L69.2917 15.212V24.392L68.5717 23.744H77.2477V26.948H68.5717L69.2917 26.228V35.552L68.7157 34.904L72.7837 35.768V38H62.0557ZM96.9209 12.908L106.929 12.728V14.96L103.617 15.968L104.121 14.852V28.244C104.121 29.348 104.025 30.404 103.833 31.412C103.641 32.42 103.305 33.356 102.825 34.22C102.369 35.06 101.757 35.792 100.989 36.416C100.245 37.04 99.2969 37.532 98.1449 37.892C97.0169 38.228 95.6849 38.396 94.1489 38.396C92.2289 38.396 90.6569 38.156 89.4329 37.676C88.2089 37.196 87.2489 36.572 86.5529 35.804C85.8809 35.036 85.4009 34.208 85.1129 33.32C84.8249 32.432 84.6449 31.58 84.5729 30.764C84.5249 29.948 84.5009 29.252 84.5009 28.676V14.852L85.0049 15.932L81.6929 15.14V12.908L91.7009 12.728V14.96L88.4249 15.968L88.8929 14.852V28.676C88.8929 29.3 88.9169 29.924 88.9649 30.548C89.0369 31.148 89.1569 31.712 89.3249 32.24C89.5169 32.768 89.8049 33.248 90.1889 33.68C90.5729 34.088 91.0889 34.412 91.7369 34.652C92.3849 34.868 93.2129 34.976 94.2209 34.976C95.2529 34.976 96.0929 34.856 96.7409 34.616C97.4129 34.376 97.9529 34.04 98.3609 33.608C98.7689 33.152 99.0689 32.636 99.2609 32.06C99.4529 31.484 99.5729 30.872 99.6209 30.224C99.6929 29.576 99.7289 28.916 99.7289 28.244V14.852L100.161 15.86L96.9209 15.14V12.908ZM108.989 38V35.768L112.409 34.868L111.797 35.768V15.068L112.625 16.04L108.989 15.14V12.908L116.405 12.728H120.149C122.957 12.728 125.081 13.316 126.521 14.492C127.961 15.668 128.681 17.36 128.681 19.568C128.681 21.584 128.057 23.24 126.809 24.536C125.585 25.832 123.677 26.612 121.085 26.876V26.372C122.021 26.42 122.789 26.588 123.389 26.876C123.989 27.164 124.481 27.56 124.865 28.064C125.273 28.544 125.657 29.132 126.017 29.828L128.933 35.552L127.673 34.76L130.877 35.768V38H125.477L122.201 31.016C121.769 30.056 121.373 29.324 121.013 28.82C120.677 28.292 120.245 27.932 119.717 27.74C119.213 27.524 118.493 27.428 117.557 27.452H115.469L116.225 26.804V35.768L115.613 34.868L119.429 35.768V38H108.989ZM116.225 25.472L115.469 24.356H118.601C120.425 24.356 121.805 23.984 122.741 23.24C123.701 22.472 124.181 21.356 124.181 19.892C124.181 18.62 123.797 17.636 123.029 16.94C122.285 16.244 121.133 15.896 119.573 15.896H115.469L116.225 15.212V25.472ZM149.204 12.908L158.492 12.728V14.96L155.036 16.004L155.684 15.032V38H150.608L138.764 17.408L139.376 17.372V35.768L138.692 34.832L142.184 35.768V38H132.896V35.768L136.388 34.832L135.704 35.768V15.068L136.172 15.896L132.896 15.14V12.908L140.96 12.728L152.66 32.96H152.012V15.032L152.696 15.968L149.204 15.14V12.908ZM170.994 14.96L167.682 15.968L168.186 15.248V35.552L167.682 34.904L170.994 35.768V38H160.95V35.768L164.226 34.904L163.758 35.552V15.248L164.37 15.968L160.95 15.14V12.908L170.994 12.728V14.96ZM177.145 38V35.768L181.213 34.832L180.385 35.948V15.212L181.285 15.932H175.057L176.065 15.068L175.201 19.64H172.537V12.728H192.661V19.64H189.997L189.169 15.212L190.141 15.932H183.913L184.813 15.212V35.948L184.021 34.832L188.053 35.768V38H177.145ZM209.245 12.908L219.253 12.728V14.96L215.941 15.968L216.445 14.852V28.244C216.445 29.348 216.349 30.404 216.157 31.412C215.965 32.42 215.629 33.356 215.149 34.22C214.693 35.06 214.081 35.792 213.313 36.416C212.569 37.04 211.621 37.532 210.469 37.892C209.341 38.228 208.009 38.396 206.473 38.396C204.553 38.396 202.981 38.156 201.757 37.676C200.533 37.196 199.573 36.572 198.877 35.804C198.205 35.036 197.725 34.208 197.437 33.32C197.149 32.432 196.969 31.58 196.897 30.764C196.849 29.948 196.825 29.252 196.825 28.676V14.852L197.329 15.932L194.017 15.14V12.908L204.025 12.728V14.96L200.749 15.968L201.217 14.852V28.676C201.217 29.3 201.241 29.924 201.289 30.548C201.361 31.148 201.481 31.712 201.649 32.24C201.841 32.768 202.129 33.248 202.513 33.68C202.897 34.088 203.413 34.412 204.061 34.652C204.709 34.868 205.537 34.976 206.545 34.976C207.577 34.976 208.417 34.856 209.065 34.616C209.737 34.376 210.277 34.04 210.685 33.608C211.093 33.152 211.393 32.636 211.585 32.06C211.777 31.484 211.897 30.872 211.945 30.224C212.017 29.576 212.053 28.916 212.053 28.244V14.852L212.485 15.86L209.245 15.14V12.908ZM221.314 38V35.768L224.734 34.868L224.122 35.768V15.068L224.95 16.04L221.314 15.14V12.908L228.73 12.728H232.474C235.282 12.728 237.406 13.316 238.846 14.492C240.286 15.668 241.006 17.36 241.006 19.568C241.006 21.584 240.382 23.24 239.134 24.536C237.91 25.832 236.002 26.612 233.41 26.876V26.372C234.346 26.42 235.114 26.588 235.714 26.876C236.314 27.164 236.806 27.56 237.19 28.064C237.598 28.544 237.982 29.132 238.342 29.828L241.258 35.552L239.998 34.76L243.202 35.768V38H237.802L234.526 31.016C234.094 30.056 233.698 29.324 233.338 28.82C233.002 28.292 232.57 27.932 232.042 27.74C231.538 27.524 230.818 27.428 229.882 27.452H227.794L228.55 26.804V35.768L227.938 34.868L231.754 35.768V38H221.314ZM228.55 25.472L227.794 24.356H230.926C232.75 24.356 234.13 23.984 235.066 23.24C236.026 22.472 236.506 21.356 236.506 19.892C236.506 18.62 236.122 17.636 235.354 16.94C234.61 16.244 233.458 15.896 231.898 15.896H227.794L228.55 15.212V25.472ZM266.935 35.876L265.747 34.832L268.951 35.768V38H258.943V35.768L262.291 34.904L261.859 35.552L260.239 30.512L260.959 31.088H250.951L251.527 30.548L249.799 35.48L249.655 35.012L252.787 35.768V38H243.571V35.768L246.667 34.868L245.659 35.768L254.263 12.8L258.763 12.656L266.935 35.876ZM252.103 28.604L251.779 27.992H260.203L259.771 28.712L255.703 15.14L256.711 15.176L252.103 28.604ZM32.2467 25.7189H19.3691C18.185 25.7211 17.0157 25.9832 15.9439 26.4866C14.8721 26.9899 13.9238 27.7224 13.1659 28.6322C12.408 29.542 11.859 30.6071 11.5576 31.7522C11.2562 32.8974 11.2097 34.0947 11.4215 35.2597H40.192C40.4067 34.0945 40.3624 32.8963 40.0623 31.7501C39.7622 30.6039 39.2135 29.5377 38.4553 28.6273C37.6971 27.7168 36.7478 26.9843 35.6749 26.4817C34.6019 25.979 33.4315 25.7186 32.2467 25.7189ZM17.4013 42.5506L17.14 50.1976C17.14 50.4104 17.0555 50.6145 16.905 50.765C16.7545 50.9155 16.5504 51 16.3376 51C16.1248 51 15.9207 50.9155 15.7702 50.765C15.6197 50.6145 15.5352 50.4104 15.5352 50.1976L15.2277 41.2511C15.9211 41.7343 16.6474 42.1685 17.4013 42.5506ZM36.3858 41.2511L36.0782 50.1884C36.0782 50.4012 35.9937 50.6053 35.8432 50.7557C35.6927 50.9062 35.4887 50.9907 35.2758 50.9907C35.063 50.9907 34.8589 50.9062 34.7085 50.7557C34.558 50.6053 34.4735 50.4012 34.4735 50.1884L34.2122 42.5437C34.9653 42.1629 35.6916 41.731 36.3858 41.2511Z" stroke="#644321" stroke-miterlimit="10" stroke-linecap="round"/>
</svg>
